<svg xmlns:xlink="http://www.w3.org/1999/xlink" xmlns="http://www.w3.org/2000/svg" height="17" width="25" shape-rendering="auto" viewBox="0 0 25 17" class="mx-auto absolute flex top-[-7px]">
<path d="M0,0 h15 a6.75,6.75 0 0 1 6.75,6.75 v1 a6.75,6.75 0 0 1 -6.75,6.75 h-15 a6.75,6.75 0 0 1 -6.75,-6.75 v-1 a6.75,6.75 0 0 1 6.75,-6.75 z" fill="#607D8B" stroke="#FFFFFF" stroke-width="0px" transform="translate(14.30, 1)" stroke-opacity="0.6" fill-opacity="0.65"></path>
<path d="M12 17.27L18.18 21l-1.64-7.03L22 9.24l-7.19-.61L12 2 9.19 8.63 2 9.24l5.46 4.73L5.82 21z" fill="#FFFFFF" transform="translate(10.50,2)scale(0.5)" fill-opacity="0.87"></path>
</svg>