<svg xmlns:xlink="http://www.w3.org/1999/xlink" xmlns="http://www.w3.org/2000/svg" height="17" width="44" shape-rendering="auto" viewBox="0 0 44 17" class="mx-auto absolute flex top-[-7px]">
<path d="M0,0 h26 a6.75,6.75 0 0 1 6.75,6.75 v1 a6.75,6.75 0 0 1 -6.75,6.75 h-26 a6.75,6.75 0 0 1 -6.75,-6.75 v-1 a6.75,6.75 0 0 1 6.75,-6.75 z" fill="#607D8B" stroke="#FFCD4F" stroke-width="0px" transform="translate(9.00, 1)" stroke-opacity="0.8" fill-opacity="0.65">
</path>
<path d="M12 17.27L18.18 21l-1.64-7.03L22 9.24l-7.19-.61L12 2 9.19 8.63 2 9.24l5.46 4.73L5.82 21z" fill="#FFCD4F" transform="translate(5.00,2)scale(0.5)" fill-opacity="0.93">
</path>
<path d="M12 17.27L18.18 21l-1.64-7.03L22 9.24l-7.19-.61L12 2 9.19 8.63 2 9.24l5.46 4.73L5.82 21z" fill="#FFCD4F" transform="translate(16.00,2)scale(0.5)" fill-opacity="0.93">
</path>
<path d="M12 17.27L18.18 21l-1.64-7.03L22 9.24l-7.19-.61L12 2 9.19 8.63 2 9.24l5.46 4.73L5.82 21z" fill="#FFCD4F" transform="translate(27.00,2)scale(0.5)" fill-opacity="0.93">
</path>
</svg>